<svg xmlns="http://www.w3.org/2000/svg" viewBox="0 0 512 512" fill="currentColor">
  <path d="M124 412C145 424 169 421 190 405C224 379 236 336 249 282C264 219 282 143 345 101C365 88 388 84 409 88C420 90 425 99 421 107C418 114 409 117 399 118C371 121 347 139 327 167C300 204 292 247 281 294C269 347 250 398 213 425C185 446 149 451 122 433C113 427 113 417 124 412Z"/>
  <path d="M119 105C178 104 246 101 329 94C354 92 382 88 407 87C419 86 426 93 425 102C424 111 416 116 405 117C338 122 272 128 207 133C174 136 145 139 118 140C106 141 99 134 99 124C99 114 106 106 119 105Z"/>
  <path d="M174 294C171 284 178 274 189 267C218 247 250 232 285 219C319 207 356 198 390 190C401 187 410 193 412 202C414 211 408 219 397 222C359 231 325 241 294 253C257 267 226 283 199 302C190 308 178 305 174 294Z"/>
</svg>
